<?xml version="1.0" standalone="no"?>
<!DOCTYPE svg PUBLIC "-//W3C//DTD SVG 20010904//EN"
 "http://www.w3.org/TR/2001/REC-SVG-20010904/DTD/svg10.dtd">
<svg version="1.0" xmlns="http://www.w3.org/2000/svg"
 width="500.000000pt" height="500.000000pt" viewBox="0 0 500.000000 500.000000"
 preserveAspectRatio="xMidYMid meet">
<metadata>
Created by potrace 1.14, written by Peter Selinger 2001-2017
</metadata>
<g transform="translate(0.000000,500.000000) scale(0.100000,-0.100000)"
fill="#000000" stroke="none">
<path d="M754 3996 c-98 -43 -110 -182 -23 -261 59 -53 127 -45 204 25 17 16
28 17 79 9 180 -29 302 -158 369 -389 41 -142 57 -306 67 -707 9 -357 20 -517
41 -612 5 -24 6 -47 2 -51 -4 -3 -25 -18 -45 -33 -46 -34 -103 -145 -123 -242
-19 -89 -19 -260 0 -348 15 -72 58 -177 72 -177 4 0 16 18 26 39 24 53 65 103
123 151 121 100 292 111 385 24 l25 -24 95 19 c269 55 632 70 875 36 113 -16
117 -15 171 5 31 11 81 21 114 21 32 1 59 3 59 5 0 8 -119 62 -180 82 -205 66
-361 86 -655 86 -246 0 -363 -13 -546 -58 -145 -36 -246 -82 -358 -163 l-24
-18 13 25 c102 194 284 333 517 396 86 24 122 27 299 31 152 4 231 1 325 -11
214 -29 477 -85 799 -173 l94 -25 19 23 c59 74 -88 185 -362 274 -439 141
-1032 193 -1394 123 -32 -6 -60 -9 -62 -6 -10 10 -44 167 -59 268 -8 58 -24
236 -36 395 -38 547 -68 704 -168 900 -97 188 -245 292 -477 336 -55 11 -120
23 -145 29 -60 12 -79 12 -116 -4z"/>
<path d="M3045 3504 c-27 -2 -111 -9 -185 -14 -183 -15 -589 -71 -861 -120
-123 -23 -228 -43 -234 -46 -10 -4 91 -1 494 16 129 6 236 9 238 6 2 -2 -18
-68 -45 -147 l-49 -144 -119 -6 c-66 -4 -180 -15 -254 -25 l-135 -19 238 -6
c131 -4 240 -9 243 -12 3 -3 -5 -56 -18 -118 l-24 -112 -85 -17 c-46 -10 -122
-33 -169 -53 l-85 -36 163 0 162 -1 1 -87 c1 -82 2 -85 11 -43 26 124 24 120
76 120 26 0 97 -7 157 -15 61 -8 110 -15 111 -15 1 0 -4 -33 -11 -72 -17 -100
-27 -259 -15 -233 5 11 30 78 56 148 26 71 53 131 60 134 11 4 263 -53 272
-62 1 -1 -18 -62 -43 -136 -25 -73 -52 -159 -60 -190 -9 -32 -18 -66 -21 -76
-3 -10 11 11 32 47 105 184 186 320 191 320 26 0 321 -141 360 -172 8 -7 0
-28 -31 -81 -105 -178 -110 -190 -87 -178 40 22 387 375 463 471 248 313 327
545 244 715 -60 122 -225 206 -481 245 -72 11 -470 21 -560 14z m-25 -158 c0
-2 -28 -46 -63 -97 -35 -52 -78 -120 -96 -152 -24 -42 -38 -56 -49 -53 -10 3
-77 8 -149 12 -73 3 -133 9 -133 12 0 3 35 68 77 144 l78 138 167 0 c93 0 168
-2 168 -4z m407 -27 l63 -11 -44 -56 c-24 -32 -73 -103 -110 -159 -37 -57 -73
-103 -79 -102 -52 2 -251 37 -254 45 -3 10 91 143 171 243 l51 63 70 -6 c39
-4 98 -12 132 -17z m341 -131 c41 -44 62 -96 62 -160 0 -61 -28 -168 -44 -168
-6 0 -81 20 -166 44 l-154 43 64 69 c114 122 194 204 200 204 3 0 20 -15 38
-32z m-1108 -233 c63 -9 116 -17 117 -18 1 -1 -13 -41 -30 -88 l-32 -86 -157
1 c-87 1 -158 2 -158 3 0 9 52 137 69 171 18 36 25 41 49 37 15 -3 79 -12 142
-20z m389 -71 c64 -14 122 -27 128 -29 9 -3 0 -30 -27 -86 -22 -45 -41 -84
-44 -86 -3 -3 -65 10 -140 27 l-135 33 36 71 c35 71 51 96 61 96 2 0 57 -11
121 -26z m484 -125 c95 -28 176 -55 181 -59 7 -7 -66 -159 -99 -203 -10 -15
-28 -9 -161 47 -82 35 -166 69 -187 75 l-38 13 17 26 c25 39 108 152 112 152
2 0 81 -23 175 -51z"/>
<path d="M1683 1445 c-227 -70 -347 -357 -201 -480 52 -44 118 -54 203 -31 74
19 113 42 172 102 95 94 134 220 95 305 -46 103 -148 142 -269 104z m57 -140
c16 -8 34 -24 40 -34 25 -48 1 -151 -46 -192 -96 -84 -214 -53 -214 56 0 125
123 220 220 170z"/>
<path d="M3123 1442 c-58 -21 -147 -85 -181 -132 -143 -193 -58 -411 152 -386
114 13 241 109 297 223 30 61 33 170 6 221 -43 79 -166 113 -274 74z m80 -142
c45 -36 53 -113 19 -176 -6 -12 -27 -35 -46 -52 -86 -75 -206 -40 -206 61 0
127 149 233 233 167z"/>
</g>
</svg>
